<svg width="14" height="22" viewBox="0 0 14 22" fill="none" xmlns="http://www.w3.org/2000/svg">
	<path
		d="M9 0C7.67392 0 6.40215 0.526784 5.46447 1.46447C4.52678 2.40215 4 3.67392 4 5V15C4 15.7956 4.31607 16.5587 4.87868 17.1213C5.44129 17.6839 6.20435 18 7 18C7.39346 17.9999 7.78302 17.9221 8.14638 17.7712C8.50974 17.6202 8.83975 17.3991 9.1175 17.1204C9.39525 16.8417 9.61529 16.511 9.76501 16.1471C9.91473 15.7833 9.99118 15.3935 9.99 15V5H8V15C8 15.2652 7.89464 15.5196 7.70711 15.7071C7.51957 15.8946 7.26522 16 7 16C6.73478 16 6.48043 15.8946 6.29289 15.7071C6.10536 15.5196 6 15.2652 6 15V5C6 4.60603 6.0776 4.21593 6.22836 3.85195C6.37913 3.48797 6.6001 3.15726 6.87868 2.87868C7.15726 2.6001 7.48797 2.37913 7.85195 2.22836C8.21593 2.0776 8.60603 2 9 2C9.39397 2 9.78407 2.0776 10.1481 2.22836C10.512 2.37913 10.8427 2.6001 11.1213 2.87868C11.3999 3.15726 11.6209 3.48797 11.7716 3.85195C11.9224 4.21593 12 4.60603 12 5V15.125C12 17.887 9.762 20 7 20C5.67392 20 4.40215 19.4732 3.46447 18.5355C2.52678 17.5979 2 16.3261 2 15V10H0V15C0 16.8565 0.737498 18.637 2.05025 19.9497C3.36301 21.2625 5.14348 22 7 22C7.91874 21.9999 8.82845 21.8186 9.67711 21.4667C10.5258 21.1147 11.2967 20.599 11.9459 19.9488C12.5951 19.2987 13.1098 18.527 13.4605 17.6779C13.8113 16.8287 13.9912 15.9187 13.99 15V5C13.99 2.238 11.762 0 9 0Z"
		fill="black" />
</svg>
	