<svg width="20" height="20" viewBox="0 0 20 20" fill="none" xmlns="http://www.w3.org/2000/svg">
    <g clip-path="url(#clip0_182_297)">
    <path d="M19.1667 3.75C19.1667 3.05965 18.607 2.5 17.9167 2.5H14.77C14.2434 1.00613 12.8339 0.00507812 11.25 0H8.74999C7.16605 0.00507812 5.75656 1.00613 5.22999 2.5H2.08331C1.39296 2.5 0.833313 3.05965 0.833313 3.75C0.833313 4.44035 1.39296 5 2.08331 5H2.49999V15.4167C2.49999 17.948 4.55202 20 7.08331 20H12.9166C15.448 20 17.5 17.948 17.5 15.4167V5H17.9167C18.607 5 19.1667 4.44035 19.1667 3.75ZM15 15.4167C15 16.5673 14.0673 17.5 12.9167 17.5H7.08331C5.93273 17.5 4.99999 16.5673 4.99999 15.4167V5H15V15.4167Z" fill="#002B69"/>
    <path d="M7.91669 15C8.60704 15 9.16669 14.4404 9.16669 13.75V8.75C9.16669 8.05965 8.60704 7.5 7.91669 7.5C7.22634 7.5 6.66669 8.05965 6.66669 8.75V13.75C6.66669 14.4404 7.22634 15 7.91669 15Z" fill="#002B69"/>
    <path d="M12.0833 15C12.7737 15 13.3333 14.4404 13.3333 13.75V8.75C13.3333 8.05965 12.7737 7.5 12.0833 7.5C11.393 7.5 10.8333 8.05965 10.8333 8.75V13.75C10.8333 14.4404 11.393 15 12.0833 15Z" fill="#002B69"/>
    </g>
    <defs>
    <clipPath id="clip0_182_297">
    <rect width="20" height="20" fill="white"/>
    </clipPath>
    </defs>
    </svg>
    