<svg width="12" height="16" viewBox="0 0 12 16" fill="none" xmlns="http://www.w3.org/2000/svg">
    <path
        d="M8.04842 4.25H4.02913M8.04842 7.25H4.02913M8.04842 10.25H5.3689M1.34961 1.25H10.7279V14.75L10.0366 14.087C9.79382 13.854 9.48457 13.7259 9.16478 13.7259C8.84499 13.7259 8.53574 13.854 8.29293 14.087L7.60161 14.75L6.91096 14.087C6.6681 13.8538 6.35872 13.7256 6.03878 13.7256C5.71884 13.7256 5.40945 13.8538 5.16659 14.087L4.47595 14.75L3.78463 14.087C3.54181 13.854 3.23257 13.7259 2.91278 13.7259C2.59299 13.7259 2.28374 13.854 2.04093 14.087L1.34961 14.75V1.25Z"
        stroke="#002B69" stroke-width="1.5" stroke-linecap="round" stroke-linejoin="round" />
</svg>