<svg width="21" height="21" viewBox="0 0 21 21" fill="none" xmlns="http://www.w3.org/2000/svg">
    <g clip-path="url(#clip0_674_9031)">
        <rect width="21" height="21" rx="10.5" fill="#EAECF0" />
        <path
            d="M5.75753 14.7175H6.63781L12.0609 9.29435L11.1807 8.41408L5.75753 13.8372V14.7175ZM14.7489 8.38264L12.0766 5.74182L12.9569 4.86154C13.1979 4.62051 13.4941 4.5 13.8454 4.5C14.1966 4.5 14.4926 4.62051 14.7332 4.86154L15.6135 5.74182C15.8545 5.98284 15.9802 6.27375 15.9907 6.61454C16.0012 6.95534 15.8859 7.24604 15.6449 7.48664L14.7489 8.38264ZM13.8372 9.31007L7.17226 15.975H4.5V13.3027L11.1649 6.63781L13.8372 9.31007ZM11.6208 8.85421L11.1807 8.41408L12.0609 9.29435L11.6208 8.85421Z"
            fill="black" />
    </g>
    <defs>
        <clipPath id="clip0_674_9031">
            <rect width="21" height="21" fill="white" />
        </clipPath>
    </defs>
</svg>