<svg width="18" height="18" viewBox="0 0 18 18" fill="none" xmlns="http://www.w3.org/2000/svg">
    <path
        d="M12.7466 14.251C12.7466 16.3204 11.0671 18 8.99762 18H3.74901C1.67956 18 0 16.3204 0 14.251V9.00238C0 6.93293 1.67956 5.25338 3.74901 5.25338H4.49881C4.9112 5.25338 5.24861 5.59079 5.24861 6.00318C5.24861 6.41557 4.9112 6.75298 4.49881 6.75298H3.74901C2.51183 6.75298 1.4996 7.76521 1.4996 9.00238V14.251C1.4996 15.4882 2.51183 16.5004 3.74901 16.5004H8.99762C10.2348 16.5004 11.247 15.4882 11.247 14.251C11.247 13.8386 11.5844 13.5012 11.9968 13.5012C12.4092 13.5012 12.7466 13.8386 12.7466 14.251ZM17.3429 4.4211L13.2865 0.229707C13.0016 -0.0702138 12.5217 -0.0777118 12.2293 0.214711C11.9368 0.507133 11.9218 0.979508 12.2143 1.27193L16.0682 5.24588H9.74742C7.67797 5.24588 5.99841 6.92543 5.99841 8.99489V12.7439C5.99841 13.1563 6.33582 13.4937 6.74821 13.4937C7.1606 13.4937 7.49801 13.1563 7.49801 12.7439V8.99489C7.49801 7.75771 8.51025 6.74548 9.74742 6.74548H16.0607L12.2068 10.7194C11.9218 11.0193 11.9218 11.4917 12.2218 11.7766C12.3642 11.9191 12.5592 11.9866 12.7466 11.9866C12.9341 11.9866 13.1365 11.9116 13.2865 11.7617L17.3354 7.58526C18.2127 6.70799 18.2127 5.28337 17.3429 4.4136V4.4211Z"
        fill="#fff" />
</svg>
    