<svg width="20" height="20" viewBox="0 0 20 20" fill="none" xmlns="http://www.w3.org/2000/svg">
    <g clip-path="url(#clip0_357_113)">
        <path
            d="M14.5834 0H5.41671C4.20161 0.00154355 3.03671 0.484925 2.17751 1.34413C1.3183 2.20334 0.834918 3.36823 0.833374 4.58333V17.06C0.834001 17.6436 1.00971 18.2137 1.33778 18.6964C1.66585 19.1791 2.13119 19.5522 2.67362 19.7676C3.21606 19.983 3.81064 20.0307 4.38048 19.9046C4.95032 19.7784 5.46921 19.4842 5.87004 19.06L9.96338 14.7267L14.1409 19.1017C14.543 19.5227 15.0619 19.8137 15.6308 19.9373C16.1997 20.0609 16.7926 20.0114 17.3331 19.7953C17.8737 19.5791 18.3372 19.2061 18.6639 18.7242C18.9907 18.2424 19.1658 17.6738 19.1667 17.0917V4.58333C19.1652 3.36823 18.6818 2.20334 17.8226 1.34413C16.9634 0.484925 15.7985 0.00154355 14.5834 0ZM16.6667 17.0917C16.6666 17.1748 16.6416 17.2559 16.5949 17.3247C16.5483 17.3935 16.4822 17.4467 16.405 17.4776C16.3279 17.5086 16.2433 17.5157 16.162 17.4981C16.0808 17.4806 16.0067 17.4392 15.9492 17.3792L10.8659 12.0533C10.7487 11.9307 10.6079 11.8332 10.4519 11.7667C10.2959 11.7002 10.128 11.6662 9.95837 11.6667C9.78885 11.6672 9.6212 11.7022 9.46562 11.7695C9.31004 11.8368 9.16978 11.9351 9.05337 12.0583L4.05337 17.3458C3.99757 17.4089 3.92328 17.4526 3.84112 17.4709C3.75895 17.4891 3.67311 17.481 3.59587 17.4475C3.51631 17.4197 3.44782 17.3669 3.40055 17.2972C3.35327 17.2274 3.32972 17.1442 3.33337 17.06V4.58333C3.33337 4.0308 3.55287 3.5009 3.94357 3.11019C4.33427 2.71949 4.86417 2.5 5.41671 2.5H14.5834C15.1359 2.5 15.6658 2.71949 16.0565 3.11019C16.4472 3.5009 16.6667 4.0308 16.6667 4.58333V17.0917Z"
            fill="#002B69" />
    </g>
    <defs>
        <clipPath id="clip0_357_113">
            <rect width="20" height="20" fill="white" />
        </clipPath>
    </defs>
</svg>
    