<svg width="18" height="18" viewBox="0 0 18 18" fill="none" xmlns="http://www.w3.org/2000/svg">
<path fill-rule="evenodd" clip-rule="evenodd" d="M6.46875 3.375V1.6875H11.5312V3.375H6.46875ZM4.78125 3.375V1.125C4.78125 0.826631 4.89978 0.540483 5.11075 0.329505C5.32173 0.118526 5.60788 0 5.90625 0L12.0938 0C12.3921 0 12.6783 0.118526 12.8892 0.329505C13.1002 0.540483 13.2188 0.826631 13.2188 1.125V3.375H16.0312C16.255 3.375 16.4696 3.46389 16.6279 3.62213C16.7861 3.78036 16.875 3.99497 16.875 4.21875C16.875 4.44253 16.7861 4.65714 16.6279 4.81537C16.4696 4.97361 16.255 5.0625 16.0312 5.0625H15.6206L14.7847 15.9221C14.7414 16.4874 14.4862 17.0154 14.0703 17.4007C13.6544 17.7859 13.1084 18 12.5415 18H5.4585C4.89159 18 4.34558 17.7859 3.92967 17.4007C3.51377 17.0154 3.25862 16.4874 3.21525 15.9221L2.37937 5.0625H1.96875C1.74497 5.0625 1.53036 4.97361 1.37213 4.81537C1.21389 4.65714 1.125 4.44253 1.125 4.21875C1.125 3.99497 1.21389 3.78036 1.37213 3.62213C1.53036 3.46389 1.74497 3.375 1.96875 3.375H4.78125ZM4.0725 5.0625H13.9275L13.1017 15.7928C13.091 15.934 13.0273 16.066 12.9234 16.1624C12.8196 16.2587 12.6832 16.3123 12.5415 16.3125H5.4585C5.31682 16.3123 5.18042 16.2587 5.07656 16.1624C4.9727 16.066 4.90902 15.934 4.89825 15.7928L4.0725 5.0625Z" fill="#002B69"/>
</svg>
