<svg width="18" height="18" viewBox="0 0 18 18" fill="none" xmlns="http://www.w3.org/2000/svg">
    <g id="fxemoji:warningsign" clip-path="url(#clip0_2198_24771)">
        <path id="Vector"
            d="M0.440238 16.5368L8.24004 0.562792C8.46641 0.099187 9.12492 0.0929995 9.35994 0.552281L17.5341 16.5263C17.7473 16.9428 17.4448 17.4375 16.9768 17.4375H1.00281C0.540012 17.4375 0.237176 16.9527 0.440238 16.5368Z"
            fill="#FFB636" />
        <path id="Vector_2"
            d="M9.99647 6.08205L9.5682 11.83C9.53617 12.2601 9.16155 12.5828 8.73148 12.5507C8.34068 12.5216 8.03869 12.2094 8.01081 11.83L7.5825 6.08205C7.53283 5.41545 8.03296 4.83478 8.69956 4.78514C9.36616 4.7355 9.94683 5.23559 9.99647 5.90219C10.0008 5.96062 10.0003 6.02524 9.99647 6.08205ZM8.78949 13.7768C8.17664 13.7768 7.67982 14.2736 7.67982 14.8865C7.67982 15.4993 8.17664 15.9961 8.78949 15.9961C9.40233 15.9961 9.89916 15.4993 9.89916 14.8864C9.89916 14.2736 9.40233 13.7768 8.78949 13.7768Z"
            fill="#2B3B47" />
    </g>
    <defs>
        <clipPath id="clip0_2198_24771">
            <rect width="18" height="18" fill="white" />
        </clipPath>
    </defs>
</svg>
    