<svg width="17" height="18" viewBox="0 0 17 18" fill="none" xmlns="http://www.w3.org/2000/svg">
    <path
        d="M10.8066 15C10.6665 15 10.5265 14.949 10.4102 14.85L7.76703 12.6C7.60051 12.459 7.50272 12.2362 7.50272 12V9.3105L3.61799 4.902C3.14024 4.359 2.87725 3.63825 2.87725 2.87175C2.87725 1.2885 4.01247 0 5.40672 0H13.5634C14.9576 0 16.0929 1.28775 16.0929 2.87175C16.0929 3.63825 15.8299 4.359 15.3521 4.902L11.4674 9.31125V14.2507C11.4674 14.535 11.326 14.7945 11.102 14.922C11.0082 14.9752 10.9071 15 10.8066 15ZM6.97409 13.8C6.47785 13.3785 6.18116 12.7057 6.18116 12V9.93225L2.68364 5.9625C2.05524 5.2485 1.68917 4.32825 1.596 3.33975C0.790508 3.8205 0.234131 4.7685 0.234131 5.87175C0.234131 6.63825 0.497122 7.359 0.974866 7.902L4.8596 12.3105V15C4.8596 15.2362 4.95739 15.4582 5.12391 15.6L7.76703 17.85C7.88333 17.949 8.02341 18 8.1635 18C8.26394 18 8.3657 17.9737 8.45887 17.9212C8.68287 17.7945 8.82428 17.5342 8.82428 17.25V15.375L6.97409 13.8Z"
        fill="#002B69" />
</svg>
    