<svg width="24" height="24" viewBox="0 0 24 24" fill="none" xmlns="http://www.w3.org/2000/svg">
    <path
        d="M8.3125 9.8H9.375C9.65679 9.8 9.92704 9.68411 10.1263 9.47782C10.3256 9.27153 10.4375 8.99174 10.4375 8.7C10.4375 8.40826 10.3256 8.12847 10.1263 7.92218C9.92704 7.71589 9.65679 7.6 9.375 7.6H8.3125C8.03071 7.6 7.76046 7.71589 7.5612 7.92218C7.36194 8.12847 7.25 8.40826 7.25 8.7C7.25 8.99174 7.36194 9.27153 7.5612 9.47782C7.76046 9.68411 8.03071 9.8 8.3125 9.8ZM8.3125 12C8.03071 12 7.76046 12.1159 7.5612 12.3222C7.36194 12.5285 7.25 12.8083 7.25 13.1C7.25 13.3917 7.36194 13.6715 7.5612 13.8778C7.76046 14.0841 8.03071 14.2 8.3125 14.2H14.6875C14.9693 14.2 15.2395 14.0841 15.4388 13.8778C15.6381 13.6715 15.75 13.3917 15.75 13.1C15.75 12.8083 15.6381 12.5285 15.4388 12.3222C15.2395 12.1159 14.9693 12 14.6875 12H8.3125ZM20 8.634C19.9889 8.53295 19.9676 8.43339 19.9363 8.337V8.238C19.8852 8.1249 19.817 8.02093 19.7344 7.93L13.3594 1.33C13.2715 1.24444 13.1711 1.17389 13.0619 1.121C13.0302 1.11634 12.998 1.11634 12.9663 1.121C12.8583 1.05692 12.7391 1.01578 12.6156 1H6.1875C5.34212 1 4.53137 1.34768 3.9336 1.96655C3.33583 2.58542 3 3.42479 3 4.3V19.7C3 20.5752 3.33583 21.4146 3.9336 22.0335C4.53137 22.6523 5.34212 23 6.1875 23H16.8125C17.6579 23 18.4686 22.6523 19.0664 22.0335C19.6642 21.4146 20 20.5752 20 19.7V8.7C20 8.7 20 8.7 20 8.634ZM13.625 4.751L16.3769 7.6H14.6875C14.4057 7.6 14.1355 7.48411 13.9362 7.27782C13.7369 7.07153 13.625 6.79174 13.625 6.5V4.751ZM17.875 19.7C17.875 19.9917 17.7631 20.2715 17.5638 20.4778C17.3645 20.6841 17.0943 20.8 16.8125 20.8H6.1875C5.90571 20.8 5.63546 20.6841 5.4362 20.4778C5.23694 20.2715 5.125 19.9917 5.125 19.7V4.3C5.125 4.00826 5.23694 3.72847 5.4362 3.52218C5.63546 3.31589 5.90571 3.2 6.1875 3.2H11.5V6.5C11.5 7.37521 11.8358 8.21458 12.4336 8.83345C13.0314 9.45232 13.8421 9.8 14.6875 9.8H17.875V19.7ZM14.6875 16.4H8.3125C8.03071 16.4 7.76046 16.5159 7.5612 16.7222C7.36194 16.9285 7.25 17.2083 7.25 17.5C7.25 17.7917 7.36194 18.0715 7.5612 18.2778C7.76046 18.4841 8.03071 18.6 8.3125 18.6H14.6875C14.9693 18.6 15.2395 18.4841 15.4388 18.2778C15.6381 18.0715 15.75 17.7917 15.75 17.5C15.75 17.2083 15.6381 16.9285 15.4388 16.7222C15.2395 16.5159 14.9693 16.4 14.6875 16.4Z"
        fill="#002B69" />
</svg>
    