<svg width="13" height="15" viewBox="0 0 13 15" fill="none" xmlns="http://www.w3.org/2000/svg">
    <path
        d="M8.00001 0V3.5C8.00001 3.89782 8.15804 4.27936 8.43935 4.56066C8.72065 4.84196 9.10218 5 9.50001 5H13V12.5C13 12.8978 12.842 13.2794 12.5607 13.5607C12.2794 13.842 11.8978 14 11.5 14H9.66301C9.87901 13.545 10 13.037 10 12.5V8.5C10 7.57174 9.63126 6.6815 8.97488 6.02513C8.3185 5.36875 7.42827 5 6.50001 5H3.00001V1.5C3.00001 1.10218 3.15804 0.720644 3.43935 0.43934C3.72065 0.158035 4.10218 0 4.50001 0H8.00001ZM9.00001 0.25V3.5C9.00001 3.63261 9.05269 3.75979 9.14645 3.85355C9.24022 3.94732 9.3674 4 9.50001 4H12.75L9.00001 0.25ZM7.7546e-06 8.5C7.7546e-06 7.83696 0.2634 7.20107 0.732241 6.73223C1.20108 6.26339 1.83697 6 2.50001 6H6.50001C7.16305 6 7.79893 6.26339 8.26777 6.73223C8.73662 7.20107 9.00001 7.83696 9.00001 8.5V12.5C9.00001 13.01 8.84801 13.483 8.58601 13.879L5.56001 10.854C5.42071 10.7146 5.25531 10.604 5.07325 10.5286C4.8912 10.4532 4.69607 10.4143 4.49901 10.4143C4.30194 10.4143 4.10681 10.4532 3.92476 10.5286C3.74271 10.604 3.57731 10.7146 3.43801 10.854L0.413008 13.879C0.142466 13.4701 -0.00121617 12.9903 7.7546e-06 12.5V8.5ZM7.00001 8.75C7.00001 8.55109 6.92099 8.36032 6.78034 8.21967C6.63969 8.07902 6.44892 8 6.25001 8C6.0511 8 5.86033 8.07902 5.71968 8.21967C5.57903 8.36032 5.50001 8.55109 5.50001 8.75C5.50001 8.94891 5.57903 9.13968 5.71968 9.28033C5.86033 9.42098 6.0511 9.5 6.25001 9.5C6.44892 9.5 6.63969 9.42098 6.78034 9.28033C6.92099 9.13968 7.00001 8.94891 7.00001 8.75ZM1.12101 14.586C1.51701 14.848 1.99101 15 2.50001 15H6.50001C7.01001 15 7.48301 14.848 7.87901 14.586L4.85401 11.56C4.80756 11.5134 4.75239 11.4765 4.69164 11.4513C4.6309 11.4261 4.56577 11.4131 4.50001 11.4131C4.43424 11.4131 4.36912 11.4261 4.30837 11.4513C4.24763 11.4765 4.19245 11.5134 4.14601 11.56L1.12101 14.585V14.586Z"
        fill="#002B69" />
</svg>
    