<svg xmlns="http://www.w3.org/2000/svg" width="29" height="22" viewBox="0 0 29 22" fill="none">
<path d="M28.1267 10.9999C28.1326 13.2326 27.4083 15.4059 26.0642 17.1886C25.9902 17.2871 25.8975 17.37 25.7914 17.4327C25.6853 17.4954 25.568 17.5365 25.446 17.5538C25.324 17.5711 25.1998 17.5642 25.0805 17.5336C24.9611 17.5029 24.849 17.449 24.7505 17.3749C24.6521 17.3009 24.5691 17.2082 24.5064 17.1021C24.4438 16.9961 24.4026 16.8787 24.3853 16.7567C24.368 16.6347 24.3749 16.5105 24.4056 16.3912C24.4363 16.2719 24.4902 16.1598 24.5642 16.0613C25.6644 14.6037 26.2571 12.8261 26.2517 10.9999C26.2517 8.76217 25.3628 6.61606 23.7804 5.03372C22.1981 3.45138 20.052 2.56243 17.8142 2.56243C15.5765 2.56243 13.4303 3.45138 11.848 5.03372C10.2657 6.61606 9.37672 8.76217 9.37672 10.9999C9.37672 11.2486 9.27795 11.487 9.10213 11.6628C8.92632 11.8387 8.68786 11.9374 8.43922 11.9374C8.19058 11.9374 7.95212 11.8387 7.77631 11.6628C7.60049 11.487 7.50172 11.2486 7.50172 10.9999C7.50126 10.0539 7.631 9.11221 7.88727 8.2015C7.75953 8.18743 7.63063 8.18743 7.50172 8.18743C6.00988 8.18743 4.57914 8.78007 3.52425 9.83496C2.46935 10.8899 1.87672 12.3206 1.87672 13.8124C1.87672 15.3043 2.46935 16.735 3.52425 17.7899C4.57914 18.8448 6.00988 19.4374 7.50172 19.4374H10.3142C10.5629 19.4374 10.8013 19.5362 10.9771 19.712C11.1529 19.8878 11.2517 20.1263 11.2517 20.3749C11.2517 20.6236 11.1529 20.862 10.9771 21.0378C10.8013 21.2137 10.5629 21.3124 10.3142 21.3124H7.50172C6.47068 21.3127 5.45066 21.1003 4.50537 20.6886C3.56008 20.277 2.70982 19.6748 2.00771 18.9198C1.30559 18.1647 0.766694 17.273 0.424673 16.3004C0.0826525 15.3277 -0.0551452 14.295 0.0198863 13.2666C0.0949177 12.2383 0.381167 11.2365 0.860755 10.3238C1.34034 9.41111 2.00297 8.60708 2.80725 7.96196C3.61153 7.31683 4.54019 6.84447 5.53523 6.57436C6.53026 6.30426 7.5703 6.24222 8.59039 6.39212C9.62914 4.31457 11.3388 2.64854 13.4426 1.66388C15.5463 0.679218 17.9208 0.433603 20.1816 0.966815C22.4423 1.50003 24.4568 2.78084 25.8988 4.60179C27.3408 6.42274 28.1258 8.67717 28.1267 10.9999ZM17.54 10.3367C17.4529 10.2495 17.3495 10.1803 17.2357 10.1332C17.1219 10.086 16.9999 10.0617 16.8767 10.0617C16.7535 10.0617 16.6315 10.086 16.5177 10.1332C16.4039 10.1803 16.3005 10.2495 16.2134 10.3367L12.4634 14.0867C12.3763 14.1738 12.3072 14.2772 12.2601 14.391C12.213 14.5048 12.1887 14.6268 12.1887 14.7499C12.1887 14.8731 12.213 14.9951 12.2601 15.1089C12.3072 15.2227 12.3763 15.3261 12.4634 15.4132C12.6394 15.5891 12.8779 15.688 13.1267 15.688C13.2499 15.688 13.3719 15.6637 13.4857 15.6166C13.5995 15.5694 13.7029 15.5003 13.79 15.4132L15.9392 13.2628V20.3749C15.9392 20.6236 16.038 20.862 16.2138 21.0378C16.3896 21.2137 16.6281 21.3124 16.8767 21.3124C17.1254 21.3124 17.3638 21.2137 17.5396 21.0378C17.7155 20.862 17.8142 20.6236 17.8142 20.3749V13.2628L19.9634 15.4132C20.0505 15.5003 20.1539 15.5694 20.2678 15.6166C20.3816 15.6637 20.5035 15.688 20.6267 15.688C20.7499 15.688 20.8719 15.6637 20.9857 15.6166C21.0995 15.5694 21.2029 15.5003 21.29 15.4132C21.3771 15.3261 21.4462 15.2227 21.4933 15.1089C21.5405 14.9951 21.5647 14.8731 21.5647 14.7499C21.5647 14.6268 21.5405 14.5048 21.4933 14.391C21.4462 14.2772 21.3771 14.1738 21.29 14.0867L17.54 10.3367Z" fill="#002B69"/>
</svg>