<svg width="100" height="101" viewBox="0 0 100 101" fill="none" xmlns="http://www.w3.org/2000/svg">
    <path
        d="M73.2717 18.4805C77.0708 18.4805 80.1506 15.4007 80.1506 11.6017C80.1506 7.80257 77.0708 4.7228 73.2717 4.7228C69.4726 4.7228 66.3929 7.80257 66.3929 11.6017C66.3929 15.4007 69.4726 18.4805 73.2717 18.4805Z"
        fill="#002B69" />
    <path
        d="M51.7796 13.7577C55.5787 13.7577 58.6585 10.6779 58.6585 6.87886C58.6585 3.07977 55.5787 0 51.7796 0C47.9805 0 44.9008 3.07977 44.9008 6.87886C44.9008 10.6779 47.9805 13.7577 51.7796 13.7577Z"
        fill="#002B69" />
    <path
        d="M30.1506 18.549C33.9497 18.549 37.0294 15.4692 37.0294 11.6701C37.0294 7.87101 33.9497 4.79124 30.1506 4.79124C26.3515 4.79124 23.2717 7.87101 23.2717 11.6701C23.2717 15.4692 26.3515 18.549 30.1506 18.549Z"
        fill="#002B69" />
    <path
        d="M15.2293 33.1965C19.0284 33.1965 22.1081 30.1167 22.1081 26.3176C22.1081 22.5185 19.0284 19.4388 15.2293 19.4388C11.4302 19.4388 8.35044 22.5185 8.35044 26.3176C8.35044 30.1167 11.4302 33.1965 15.2293 33.1965Z"
        fill="#002B69" />
    <path
        d="M6.87885 53.0459C10.6779 53.0459 13.7577 49.9661 13.7577 46.1671C13.7577 42.368 10.6779 39.2882 6.87885 39.2882C3.07977 39.2882 0 42.368 0 46.1671C0 49.9661 3.07977 53.0459 6.87885 53.0459Z"
        fill="#002B69" />
    <path
        d="M9.6167 73.306C13.4158 73.306 16.4956 70.2262 16.4956 66.4272C16.4956 62.6281 13.4158 59.5483 9.6167 59.5483C5.81762 59.5483 2.73785 62.6281 2.73785 66.4272C2.73785 70.2262 5.81762 73.306 9.6167 73.306Z"
        fill="#002B69" />
    <path
        d="M21.1157 90.5545C24.9148 90.5545 27.9945 87.4747 27.9945 83.6756C27.9945 79.8765 24.9148 76.7968 21.1157 76.7968C17.3166 76.7968 14.2368 79.8765 14.2368 83.6756C14.2368 87.4747 17.3166 90.5545 21.1157 90.5545Z"
        fill="#002B69" />
    <path
        d="M39.4593 100C43.2584 100 46.3381 96.9203 46.3381 93.1212C46.3381 89.3221 43.2584 86.2424 39.4593 86.2424C35.6602 86.2424 32.5804 89.3221 32.5804 93.1212C32.5804 96.9203 35.6602 100 39.4593 100Z"
        fill="#002B69" />
    <path
        d="M60.4038 100.548C64.2029 100.548 67.2827 97.4679 67.2827 93.6688C67.2827 89.8697 64.2029 86.7899 60.4038 86.7899C56.6047 86.7899 53.525 89.8697 53.525 93.6688C53.525 97.4679 56.6047 100.548 60.4038 100.548Z"
        fill="#002B69" />
    <path
        d="M80.3902 91.5127C84.1892 91.5127 87.269 88.433 87.269 84.6339C87.269 80.8348 84.1892 77.755 80.3902 77.755C76.5911 77.755 73.5113 80.8348 73.5113 84.6339C73.5113 88.433 76.5911 91.5127 80.3902 91.5127Z"
        fill="#002B69" />
    <path
        d="M93.1212 75.4963C96.9202 75.4963 100 72.4165 100 68.6174C100 64.8184 96.9202 61.7386 93.1212 61.7386C89.3221 61.7386 86.2423 64.8184 86.2423 68.6174C86.2423 72.4165 89.3221 75.4963 93.1212 75.4963Z"
        fill="#002B69" />
    <path
        d="M80.9377 66.3142C83.5971 66.3142 85.7529 64.1584 85.7529 61.499C85.7529 58.8397 83.5971 56.6838 80.9377 56.6838C78.2784 56.6838 76.1225 58.8397 76.1225 61.499C76.1225 64.1584 78.2784 66.3142 80.9377 66.3142Z"
        fill="#002B69" />
    <path
        d="M70.9978 59.4251C72.7074 59.4251 74.0933 58.0392 74.0933 56.3296C74.0933 54.62 72.7074 53.2341 70.9978 53.2341C69.2882 53.2341 67.9023 54.62 67.9023 56.3296C67.9023 58.0392 69.2882 59.4251 70.9978 59.4251Z"
        fill="#002B69" />
    <path
        d="M63.6893 68.7013C65.3988 68.7013 66.7847 67.3154 66.7847 65.6058C66.7847 63.8962 65.3988 62.5103 63.6893 62.5103C61.9797 62.5103 60.5938 63.8962 60.5938 65.6058C60.5938 67.3154 61.9797 68.7013 63.6893 68.7013Z"
        fill="#002B69" />
    <path
        d="M58.0082 61.4408C59.1479 61.4408 60.0719 60.5169 60.0719 59.3772C60.0719 58.2375 59.1479 57.3135 58.0082 57.3135C56.8685 57.3135 55.9446 58.2375 55.9446 59.3772C55.9446 60.5169 56.8685 61.4408 58.0082 61.4408Z"
        fill="#002B69" />
    <path
        d="M62.9364 54.87C64.0761 54.87 65 53.9461 65 52.8063C65 51.6666 64.0761 50.7427 62.9364 50.7427C61.7966 50.7427 60.8727 51.6666 60.8727 52.8063C60.8727 53.9461 61.7966 54.87 62.9364 54.87Z"
        fill="#002B69" />
    <path
        d="M53.6277 56.1688C54.5774 56.1688 55.3474 55.3988 55.3474 54.4491C55.3474 53.4993 54.5774 52.7293 53.6277 52.7293C52.6779 52.7293 51.9079 53.4993 51.9079 54.4491C51.9079 55.3988 52.6779 56.1688 53.6277 56.1688Z"
        fill="#002B69" />
    <path
        d="M57.1869 51.7882C58.1366 51.7882 58.9066 51.0183 58.9066 50.0685C58.9066 49.1187 58.1366 48.3488 57.1869 48.3488C56.2371 48.3488 55.4672 49.1187 55.4672 50.0685C55.4672 51.0183 56.2371 51.7882 57.1869 51.7882Z"
        fill="#002B69" />
    <path
        d="M49.9316 49.4593C50.6914 49.4593 51.3073 48.8434 51.3073 48.0835C51.3073 47.3237 50.6914 46.7078 49.9316 46.7078C49.1717 46.7078 48.5558 47.3237 48.5558 48.0835C48.5558 48.8434 49.1717 49.4593 49.9316 49.4593Z"
        fill="#002B69" />
    <path
        d="M71.0815 78.7715C73.7408 78.7715 75.8967 76.6156 75.8967 73.9563C75.8967 71.2969 73.7408 69.1411 71.0815 69.1411C68.4221 69.1411 66.2663 71.2969 66.2663 73.9563C66.2663 76.6156 68.4221 78.7715 71.0815 78.7715Z"
        fill="#002B69" />
    <path
        d="M57.9398 84.521C60.5991 84.521 62.755 82.3651 62.755 79.7058C62.755 77.0464 60.5991 74.8906 57.9398 74.8906C55.2804 74.8906 53.1246 77.0464 53.1246 79.7058C53.1246 82.3651 55.2804 84.521 57.9398 84.521Z"
        fill="#002B69" />
    <path
        d="M44.2505 84.1103C46.9099 84.1103 49.0657 81.9544 49.0657 79.2951C49.0657 76.6357 46.9099 74.4799 44.2505 74.4799C41.5912 74.4799 39.4353 76.6357 39.4353 79.2951C39.4353 81.9544 41.5912 84.1103 44.2505 84.1103Z"
        fill="#002B69" />
    <path
        d="M31.7933 78.087C34.4527 78.087 36.6085 75.9312 36.6085 73.2718C36.6085 70.6124 34.4527 68.4566 31.7933 68.4566C29.1339 68.4566 26.9781 70.6124 26.9781 73.2718C26.9781 75.9312 29.1339 78.087 31.7933 78.087Z"
        fill="#002B69" />
    <path
        d="M23.1691 65.9035C25.8284 65.9035 27.9843 63.7477 27.9843 61.0884C27.9843 58.429 25.8284 56.2732 23.1691 56.2732C20.5097 56.2732 18.3539 58.429 18.3539 61.0884C18.3539 63.7477 20.5097 65.9035 23.1691 65.9035Z"
        fill="#002B69" />
    <path
        d="M22.0739 51.9405C24.7333 51.9405 26.8891 49.7847 26.8891 47.1253C26.8891 44.4659 24.7333 42.3101 22.0739 42.3101C19.4146 42.3101 17.2587 44.4659 17.2587 47.1253C17.2587 49.7847 19.4146 51.9405 22.0739 51.9405Z"
        fill="#002B69" />
    <path
        d="M27.6865 38.3881C30.3459 38.3881 32.5017 36.2323 32.5017 33.5729C32.5017 30.9136 30.3459 28.7577 27.6865 28.7577C25.0272 28.7577 22.8713 30.9136 22.8713 33.5729C22.8713 36.2323 25.0272 38.3881 27.6865 38.3881Z"
        fill="#002B69" />
    <path
        d="M37.269 28.9425C39.9284 28.9425 42.0842 26.7867 42.0842 24.1273C42.0842 21.468 39.9284 19.3121 37.269 19.3121C34.6096 19.3121 32.4538 21.468 32.4538 24.1273C32.4538 26.7867 34.6096 28.9425 37.269 28.9425Z"
        fill="#002B69" />
    <path
        d="M52.601 26.2047C55.2603 26.2047 57.4162 24.0488 57.4162 21.3895C57.4162 18.7301 55.2603 16.5743 52.601 16.5743C49.9416 16.5743 47.7858 18.7301 47.7858 21.3895C47.7858 24.0488 49.9416 26.2047 52.601 26.2047Z"
        fill="#002B69" />
    <path
        d="M66.7009 29.4901C69.3603 29.4901 71.5161 27.3343 71.5161 24.6749C71.5161 22.0155 69.3603 19.8597 66.7009 19.8597C64.0415 19.8597 61.8857 22.0155 61.8857 24.6749C61.8857 27.3343 64.0415 29.4901 66.7009 29.4901Z"
        fill="#002B69" />
</svg>
    