<svg width="20" height="20" viewBox="0 0 20 20" fill="none" xmlns="http://www.w3.org/2000/svg">
    <path
        d="M10 20C8.02219 20 6.08879 19.4135 4.4443 18.3147C2.79981 17.2159 1.51809 15.6541 0.761209 13.8268C0.00433286 11.9996 -0.1937 9.98891 0.192152 8.0491C0.578004 6.10929 1.53041 4.32746 2.92894 2.92894C4.32746 1.53041 6.10929 0.578004 8.0491 0.192152C9.98891 -0.1937 11.9996 0.00433286 13.8268 0.761209C15.6541 1.51809 17.2159 2.79981 18.3147 4.4443C19.4135 6.08879 20 8.02219 20 10C19.9971 12.6513 18.9426 15.1932 17.0679 17.0679C15.1932 18.9426 12.6513 19.9971 10 20ZM10 2.5C8.51664 2.5 7.06659 2.93987 5.83323 3.76398C4.59986 4.58809 3.63856 5.75943 3.07091 7.12988C2.50325 8.50032 2.35473 10.0083 2.64411 11.4632C2.9335 12.918 3.64781 14.2544 4.6967 15.3033C5.7456 16.3522 7.08197 17.0665 8.53683 17.3559C9.99168 17.6453 11.4997 17.4968 12.8701 16.9291C14.2406 16.3614 15.4119 15.4001 16.236 14.1668C17.0601 12.9334 17.5 11.4834 17.5 10C17.4976 8.01162 16.7066 6.10538 15.3006 4.69938C13.8946 3.29338 11.9884 2.50243 10 2.5Z"
        fill="#87CEFA" />
    <path
        d="M12.0458 15.5683H9.54583V10.4542H8.40916V7.95416H10C10.5425 7.95461 11.0626 8.17029 11.4461 8.55386C11.8297 8.93744 12.0454 9.45754 12.0458 10V15.5683Z"
        fill="#87CEFA" />
    <path
        d="M10.2367 7.055C11.0264 7.055 11.6667 6.41477 11.6667 5.625C11.6667 4.83523 11.0264 4.195 10.2367 4.195C9.4469 4.195 8.80666 4.83523 8.80666 5.625C8.80666 6.41477 9.4469 7.055 10.2367 7.055Z"
        fill="#87CEFA" />
</svg>
    