<svg width="18" height="20" viewBox="0 0 18 20" fill="none" xmlns="http://www.w3.org/2000/svg">
    <path
        d="M12.2727 2.26145V4.97617C13.5206 5.69661 14.4958 6.80866 15.0472 8.13986C15.5986 9.47106 15.6953 10.947 15.3224 12.3388C14.9495 13.7306 14.1277 14.9604 12.9846 15.8375C11.8415 16.7147 10.4409 17.1901 9 17.1901C7.55912 17.1901 6.15851 16.7147 5.01539 15.8375C3.87226 14.9604 3.05051 13.7306 2.67759 12.3388C2.30466 10.947 2.4014 9.47106 2.9528 8.13986C3.5042 6.80866 4.47944 5.69661 5.72728 4.97617V2.26145C3.77285 3.02438 2.14638 4.44616 1.12899 6.28103C0.111597 8.11591 -0.232777 10.2486 0.15539 12.3104C0.543556 14.3722 1.63987 16.2337 3.25484 17.573C4.86981 18.9123 6.90194 19.6453 9 19.6453C11.0981 19.6453 13.1302 18.9123 14.7452 17.573C16.3601 16.2337 17.4564 14.3722 17.8446 12.3104C18.2328 10.2486 17.8884 8.11591 16.871 6.28103C15.8536 4.44616 14.2271 3.02438 12.2727 2.26145Z"
        fill="#002B69" />
    <path d="M10.2273 0H7.77273V6.54544H10.2273V0Z" fill="#002B69" />
</svg>
    