<svg width="36" height="25" viewBox="0 0 36 25" fill="none" xmlns="http://www.w3.org/2000/svg">
    <path
        d="M33.0883 10.2941H2.20589C0.987617 10.2941 0 11.2817 0 12.5C0 13.7183 0.987617 14.7059 2.20589 14.7059H33.0883C34.3066 14.7059 35.2942 13.7183 35.2942 12.5C35.2942 11.2817 34.3066 10.2941 33.0883 10.2941Z"
        fill="#79D9FF" />
    <path
        d="M2.20589 4.41177H33.0883C34.3066 4.41177 35.2942 3.42416 35.2942 2.20589C35.2942 0.987617 34.3066 0 33.0883 0H2.20589C0.987617 0 0 0.987617 0 2.20589C0 3.42416 0.987617 4.41177 2.20589 4.41177Z"
        fill="#79D9FF" />
    <path
        d="M33.0883 20.5882H2.20589C0.987617 20.5882 0 21.5758 0 22.7941C0 24.0124 0.987617 25 2.20589 25H33.0883C34.3066 25 35.2942 24.0124 35.2942 22.7941C35.2942 21.5758 34.3066 20.5882 33.0883 20.5882Z"
        fill="#79D9FF" />
</svg>
    