<svg width="23" height="18" viewBox="0 0 23 18" fill="none" xmlns="http://www.w3.org/2000/svg">
    <g clip-path="url(#clip0_338_8303)">
        <path
            d="M3.375 3.375V11.25C3.375 12.491 4.38398 13.5 5.625 13.5H20.25C21.491 13.5 22.5 12.491 22.5 11.25V3.375C22.5 2.13398 21.491 1.125 20.25 1.125H5.625C4.38398 1.125 3.375 2.13398 3.375 3.375ZM5.625 9C6.86602 9 7.875 10.009 7.875 11.25H5.625V9ZM7.875 3.375C7.875 4.61602 6.86602 5.625 5.625 5.625V3.375H7.875ZM20.25 9V11.25H18C18 10.009 19.009 9 20.25 9ZM18 3.375H20.25V5.625C19.009 5.625 18 4.61602 18 3.375ZM10.125 7.3125C10.125 6.56658 10.4213 5.85121 10.9488 5.32376C11.4762 4.79632 12.1916 4.5 12.9375 4.5C13.6834 4.5 14.3988 4.79632 14.9262 5.32376C15.4537 5.85121 15.75 6.56658 15.75 7.3125C15.75 8.05842 15.4537 8.77379 14.9262 9.30124C14.3988 9.82868 13.6834 10.125 12.9375 10.125C12.1916 10.125 11.4762 9.82868 10.9488 9.30124C10.4213 8.77379 10.125 8.05842 10.125 7.3125ZM1.6875 4.21875C1.6875 3.75117 1.31133 3.375 0.84375 3.375C0.376172 3.375 0 3.75117 0 4.21875V12.6562C0 14.9871 1.88789 16.875 4.21875 16.875H18.2812C18.7488 16.875 19.125 16.4988 19.125 16.0312C19.125 15.5637 18.7488 15.1875 18.2812 15.1875H4.21875C2.81953 15.1875 1.6875 14.0555 1.6875 12.6562V4.21875Z"
            fill="black" />
    </g>
    <defs>
        <clipPath id="clip0_338_8303">
            <rect width="22.5" height="18" fill="white" />
        </clipPath>
    </defs>
</svg>