<svg width="25" height="25" viewBox="0 0 25 25" fill="none" xmlns="http://www.w3.org/2000/svg">
    <path
        d="M21.3025 21.3026H17.5979V15.5012C17.5979 14.1176 17.5732 12.3374 15.671 12.3374C13.7417 12.3374 13.446 13.8441 13.446 15.4014V21.3026H9.74264V9.37197H13.2994V11.0019H13.3487C14.0743 9.76252 15.4221 9.02209 16.8574 9.07506C20.6125 9.07506 21.3037 11.5452 21.3037 14.757L21.3025 21.3026ZM5.56247 7.74081C4.37482 7.74081 3.41263 6.77862 3.41263 5.59097C3.41263 4.40333 4.37482 3.44114 5.56247 3.44114C6.75011 3.44114 7.71231 4.40333 7.71231 5.59097C7.71231 6.77862 6.75011 7.74081 5.56247 7.74081ZM7.41416 21.3026H3.70585V9.37197H7.41416V21.3026ZM23.1492 0.00140028H1.8443C0.837758 -0.0096877 0.01232 0.797271 0 1.80381V23.1962C0.01232 24.204 0.837758 25.0109 1.8443 24.9999H23.1492C24.1582 25.0122 24.9874 24.2052 25.0009 23.1962V1.80258C24.9861 0.793574 24.157 -0.0133837 23.1492 0.000168224"
        fill="black" />
</svg>
    