<svg width="25" height="25" viewBox="0 0 25 25" fill="none" xmlns="http://www.w3.org/2000/svg">
    <path
        d="M8.22411 16.7762C7.61354 16.1666 7.61354 15.1758 8.22411 14.5662C8.83467 13.9557 9.82345 13.9557 10.434 14.5662C11.8156 15.9478 14.2266 15.9489 15.6082 14.5662L20.8063 9.36813C22.2327 7.94175 22.2327 5.62036 20.8063 4.19397C19.3799 2.76759 17.0585 2.76759 15.6321 4.19397C15.0216 4.80454 14.0328 4.80454 13.4222 4.19397C12.8117 3.58445 12.8117 2.59359 13.4222 1.98407C16.0666 -0.661357 20.3718 -0.661357 23.0162 1.98407C25.6616 4.62949 25.6616 8.93261 23.0162 11.578L17.8181 16.7762C16.4948 18.0994 14.758 18.76 13.0211 18.76C11.2842 18.76 9.5463 18.0983 8.22411 16.7762ZM6.78209 25C8.51897 25 10.2558 24.3384 11.5791 23.0162C12.1896 22.4067 12.1896 21.4158 11.5791 20.8063C10.9685 20.1957 9.97974 20.1957 9.36917 20.8063C7.94175 22.2337 5.62036 22.2327 4.19502 20.8063C2.76863 19.3799 2.76863 17.0585 4.19502 15.6321L9.36396 10.4632C10.7914 9.03576 13.1128 9.03576 14.5381 10.4632C15.1487 11.0737 16.1375 11.0737 16.748 10.4632C17.3586 9.85366 17.3586 8.8628 16.748 8.25328C14.1026 5.60785 9.79948 5.60785 7.15406 8.25328L1.98407 13.4222C-0.661357 16.0677 -0.661357 20.3708 1.98407 23.0162C3.3073 24.3394 5.04418 25 6.78105 25H6.78209Z"
        fill="black" />
</svg>
    