<svg width="25" height="25" viewBox="0 0 25 25" fill="none" xmlns="http://www.w3.org/2000/svg">
    <path fill-rule="evenodd" clip-rule="evenodd"
        d="M21.2562 3.63333C18.9167 1.29167 15.8062 0.00104167 12.4927 0C5.66458 0 0.107292 5.55625 0.104167 12.3875C0.103125 14.5708 0.673958 16.7021 1.75833 18.5812L0 25L6.56667 23.2771C8.37604 24.2646 10.4135 24.7844 12.4865 24.7854H12.4917C19.3187 24.7854 24.8771 19.2281 24.8802 12.3969C24.8823 9.0875 23.5948 5.97396 21.2562 3.63333ZM12.4927 22.6927H12.4885C10.6406 22.6927 8.82917 22.1958 7.24792 21.2573L6.87187 21.0344L2.975 22.0562L4.01562 18.2562L3.77083 17.8667C2.73958 16.2271 2.19583 14.3323 2.19687 12.3875C2.19896 6.71042 6.81875 2.09167 12.4979 2.09167C15.2479 2.09167 17.8333 3.16458 19.7771 5.11042C21.7208 7.05729 22.7906 9.64375 22.7896 12.3948C22.7865 18.074 18.1677 22.6927 12.4927 22.6927ZM18.1406 14.9812C17.8312 14.826 16.3094 14.0771 16.025 13.974C15.7417 13.8708 15.5354 13.8187 15.3281 14.1281C15.1208 14.4375 14.5292 15.1354 14.3479 15.3427C14.1677 15.549 13.9865 15.575 13.6771 15.4198C13.3677 15.2646 12.3698 14.9385 11.1875 13.8833C10.2677 13.0625 9.64583 12.049 9.46562 11.7385C9.28542 11.4281 9.44687 11.2615 9.60104 11.1073C9.74062 10.9688 9.91042 10.7458 10.0656 10.5646C10.2219 10.3854 10.2729 10.2562 10.3771 10.049C10.4802 9.84271 10.4292 9.66146 10.351 9.50625C10.2729 9.35208 9.65417 7.82812 9.39687 7.20833C9.14583 6.60417 8.89062 6.68646 8.7 6.67708C8.51979 6.66771 8.31354 6.66667 8.10625 6.66667C7.9 6.66667 7.56458 6.74375 7.28125 7.05417C6.99792 7.36458 6.19792 8.11354 6.19792 9.63646C6.19792 11.1604 7.30729 12.6323 7.46146 12.8385C7.61562 13.0448 9.64375 16.1719 12.749 17.5125C13.4875 17.8312 14.0646 18.0219 14.5135 18.1646C15.2552 18.4 15.9302 18.3667 16.4635 18.2875C17.0583 18.199 18.2948 17.5385 18.5531 16.8156C18.8115 16.0927 18.8115 15.4719 18.7333 15.3437C18.6562 15.2135 18.45 15.1365 18.1406 14.9812Z"
        fill="black" />
</svg>
    